<?xml version="1.0" encoding="UTF-8"?>
<svg xmlns="http://www.w3.org/2000/svg" viewBox="-10 -10 220 260" aria-label="AI doctor mascot - scanning">
  
    
  <g class="stethoscope">
    <path d="M 98 76 Q 35 74 39 102 Q 41 120 47 126" stroke="#1f1a14" stroke-width="4" fill="none" stroke-linecap="round"></path>
    <path d="M 102 76 Q 165 74 161 102 Q 159 120 153 126" stroke="#1f1a14" stroke-width="4" fill="none" stroke-linecap="round"></path>
    <ellipse cx="100" cy="68" rx="18" ry="14" fill="#d94d3f" stroke="#1f1a14" stroke-width="4"></ellipse>
    <ellipse cx="100" cy="68" rx="9" ry="6.5" fill="#f4ecd8" stroke="#1f1a14" stroke-width="2"></ellipse>
    <rect x="97" y="49" width="6" height="6" fill="#1f1a14" rx="1"></rect>
  </g>
    <rect x="20" y="80" width="160" height="130" rx="34" ry="34" fill="#cfe5f7" stroke="#1f1a14" stroke-width="4"></rect>
    
    <path d="M 57 109 Q 75 102 93 109" stroke="#1f1a14" stroke-width="4" fill="none" stroke-linecap="round"></path>
    <path d="M 107 109 Q 125 102 143 109" stroke="#1f1a14" stroke-width="4" fill="none" stroke-linecap="round"></path>
    
    <ellipse cx="75" cy="140" rx="22" ry="28" fill="#fff" stroke="#1f1a14" stroke-width="3"></ellipse>
  <ellipse cx="75" cy="140" rx="11" ry="11.55" fill="#1565c0"></ellipse>
  <circle cx="70.38" cy="133.95" r="3.3" fill="#fff"></circle>
    <ellipse cx="125" cy="140" rx="22" ry="28" fill="#fff" stroke="#1f1a14" stroke-width="3"></ellipse>
  <ellipse cx="125" cy="140" rx="11" ry="11.55" fill="#1565c0"></ellipse>
  <circle cx="120.38" cy="133.95" r="3.3" fill="#fff"></circle>
    <rect x="24" y="88" width="152" height="3" fill="#2a8c8a" opacity="0.85" rx="1.5"></rect>
  <path d="M 18 88 L 18 78 L 28 78" stroke="#2a8c8a" stroke-width="3" fill="none" stroke-linecap="round"></path>
  <path d="M 182 88 L 182 78 L 172 78" stroke="#2a8c8a" stroke-width="3" fill="none" stroke-linecap="round"></path>
  <path d="M 18 202 L 18 212 L 28 212" stroke="#2a8c8a" stroke-width="3" fill="none" stroke-linecap="round"></path>
  <path d="M 182 202 L 182 212 L 172 212" stroke="#2a8c8a" stroke-width="3" fill="none" stroke-linecap="round"></path>
  
</svg>
